<?xml version="1.0" encoding="UTF-8"?>
<!DOCTYPE svg PUBLIC "-//W3C//DTD SVG 1.1//EN" "http://www.w3.org/Graphics/SVG/1.1/DTD/svg11.dtd">
<!-- Creator: CorelDRAW X6 -->
<svg xmlns="http://www.w3.org/2000/svg" xml:space="preserve" width="13.8889in" height="13.8889in" version="1.1" style="shape-rendering:geometricPrecision; text-rendering:geometricPrecision; image-rendering:optimizeQuality; fill-rule:evenodd; clip-rule:evenodd"
viewBox="0 0 13889 13889"
 xmlns:xlink="http://www.w3.org/1999/xlink">
 <defs>
  <style type="text/css">
   <![CDATA[
    .fil1 {fill:#555555;fill-rule:nonzero}
    .fil0 {fill:white;fill-rule:nonzero}
   ]]>
  </style>
 </defs>
 <g id="Layer_x0020_1">
  <metadata id="CorelCorpID_0Corel-Layer"/>
  <polygon class="fil0" points="0,13889 13889,13889 13889,0 0,0 "/>
  <path class="fil1" d="M5268 6953c-828,124 -1543,-551 -1473,-1381 47,-548 536,-1071 1081,-1153 828,-124 1543,551 1473,1381 -47,548 -536,1071 -1081,1153zm2384 -1768l-187 4c-217,5 -414,-122 -501,-321 -4,-9 -8,-18 -12,-27 -89,-198 -49,-430 101,-586l129 -135c36,-37 34,-96 -3,-132l-506 -484c-37,-36 -96,-34 -132,3l-126 131c-151,158 -383,210 -587,129 -8,-3 -16,-6 -24,-9 -203,-77 -339,-269 -344,-486l-4 -187c-1,-52 -44,-92 -95,-91l-700 16c-52,1 -92,44 -91,95l4 187c5,216 -121,414 -319,500 -8,3 -16,7 -23,10 -201,90 -436,51 -595,-101l-132 -126c-37,-36 -96,-34 -132,3l-484 506c-36,37 -34,96 3,132l131 126c159,152 209,385 128,590 -3,8 -6,15 -9,23 -77,202 -269,337 -485,342l-187 4c-52,1 -92,44 -91,95l16 700c1,52 44,92 95,91l187 -4c217,-5 414,122 501,321 3,7 6,15 10,22 90,201 50,436 -102,595l-126 131c-36,37 -34,96 3,132l506 484c37,36 96,34 132,-3l128 -134c151,-158 383,-207 587,-126 8,3 16,6 25,10 202,77 337,270 341,487l4 185c1,52 44,92 95,91l700 -16c52,-1 92,-44 91,-95l-4 -186c-5,-216 120,-414 318,-500 8,-4 17,-7 25,-11 200,-90 434,-51 592,100l133 127c37,36 96,34 132,-3l484 -506c36,-37 34,-96 -3,-132l-131 -126c-159,-152 -209,-385 -128,-590 3,-7 6,-15 9,-22 77,-202 269,-338 486,-343l187 -4c52,-1 92,-44 91,-95l-16 -700c-1,-52 -44,-92 -95,-91z"/>
  <path class="fil1" d="M9884 8202c-592,356 -1351,67 -1559,-588 -137,-433 71,-986 460,-1220 592,-356 1351,-67 1559,588 137,433 -71,986 -460,1220zm1259 -2101l-141 62c-164,72 -355,37 -483,-87 -6,-6 -12,-11 -18,-17 -130,-122 -173,-312 -108,-479l56 -144c15,-40 -4,-84 -44,-100l-538 -209c-40,-15 -84,4 -100,44l-54 140c-65,168 -226,281 -407,284 -7,0 -14,0 -22,0 -179,5 -343,-98 -416,-262l-62 -141c-17,-39 -63,-57 -102,-39l-528 233c-39,17 -57,63 -39,102l62 141c72,163 38,354 -86,482 -5,5 -10,10 -15,15 -125,132 -316,176 -486,111l-140 -54c-40,-15 -84,4 -100,44l-209 538c-15,40 4,84 44,100l140 54c169,66 281,228 284,409 0,7 0,13 0,20 5,178 -99,342 -262,414l-141 62c-39,17 -57,63 -39,102l233 529c17,39 63,57 102,39l141 -62c164,-72 354,-38 483,87 5,5 10,9 14,14 132,125 176,316 110,486l-54 140c-15,40 4,84 44,100l538 209c40,15 84,-4 100,-44l55 -142c65,-169 227,-279 408,-282 7,0 14,0 22,0 179,-5 342,100 414,263l62 140c17,39 63,57 102,39l529 -233c39,-17 57,-63 39,-102l-62 -141c-72,-163 -39,-354 85,-482 5,-5 11,-11 16,-16 124,-132 315,-176 483,-111l142 55c40,15 84,-4 100,-44l209 -538c15,-40 -4,-84 -44,-100l-140 -54c-169,-66 -281,-227 -284,-409 0,-7 0,-13 0,-20 -5,-179 98,-343 262,-415l141 -62c39,-17 57,-63 39,-102l-233 -529c-17,-39 -63,-57 -102,-39z"/>
  <path class="fil1" d="M6611 10078c-421,172 -885,-92 -954,-538 -46,-295 145,-634 421,-747 421,-172 885,92 954,538 46,295 -145,634 -421,747zm1030 -1239l-98 26c-114,30 -234,-11 -305,-105 -3,-4 -6,-8 -10,-13 -72,-93 -81,-220 -22,-322l51 -88c14,-24 6,-55 -19,-69l-329 -190c-24,-14 -55,-6 -69,19l-49 85c-59,103 -175,160 -293,144 -5,-1 -9,-1 -14,-2 -117,-15 -213,-98 -244,-212l-26 -98c-7,-27 -35,-43 -62,-36l-367 98c-27,7 -43,35 -36,62l26 98c30,113 -11,234 -104,305 -4,3 -7,6 -11,8 -94,73 -223,83 -327,23l-86 -49c-24,-14 -55,-6 -69,19l-190 329c-14,24 -6,55 19,69l85 49c103,60 160,176 144,295 -1,4 -1,9 -2,13 -15,117 -98,213 -212,243l-98 26c-27,7 -43,35 -36,62l98 367c7,27 35,43 62,36l98 -26c114,-30 234,11 305,105 3,3 5,7 8,10 73,94 83,223 23,327l-49 85c-14,24 -6,55 19,69l329 190c24,14 55,6 69,-19l50 -87c59,-103 176,-158 293,-142 5,1 9,1 14,2 117,15 212,99 243,213l26 97c7,27 35,43 62,36l367 -98c27,-7 43,-35 36,-62l-26 -98c-30,-113 10,-234 103,-305 4,-3 8,-6 12,-9 94,-73 222,-83 325,-23l87 50c24,14 55,6 69,-19l190 -329c14,-24 6,-55 -19,-69l-85 -49c-103,-60 -160,-176 -144,-294 1,-4 1,-9 2,-13 15,-117 98,-213 212,-243l98 -26c27,-7 43,-35 36,-62l-98 -367c-7,-27 -35,-43 -62,-36z"/>
 </g>
</svg>
